<svg xmlns="http://www.w3.org/2000/svg" viewBox="0 0 64 64" role="img" aria-label="WhatsApp">
  <circle cx="32" cy="32" r="30" fill="#20b15a"/>
  <path fill="#fff" d="M45.7 38.3c-.7-.4-4.2-2.1-4.9-2.3-.7-.2-1.1-.4-1.6.4-.5.7-1.9 2.3-2.4 2.8-.4.5-.9.5-1.6.2-.7-.4-3-1.1-5.7-3.5-2.1-1.9-3.5-4.2-3.9-4.9-.4-.7 0-1.1.3-1.5.3-.3.7-.9 1.1-1.3.4-.4.5-.7.7-1.2.2-.5.1-.9-.1-1.3-.2-.4-1.6-3.9-2.2-5.3-.6-1.4-1.2-1.2-1.6-1.2h-1.4c-.5 0-1.3.2-2 .9-.7.7-2.6 2.5-2.6 6.2s2.7 7.2 3.1 7.7c.4.5 5.3 8.1 12.9 11.3 1.8.8 3.2 1.2 4.3 1.6 1.8.6 3.5.5 4.8.3 1.5-.2 4.2-1.7 4.8-3.4.6-1.7.6-3.1.4-3.4-.2-.4-.7-.6-1.4-.9z"/>
  <path fill="#fff" d="M32.1 9.4c-12.5 0-22.6 10.1-22.6 22.5 0 4 1.1 7.9 3.1 11.3L9.3 55l12.1-3.2c3.3 1.8 7 2.8 10.8 2.8 12.4 0 22.5-10.1 22.5-22.5S44.6 9.4 32.1 9.4zm0 41.4c-3.4 0-6.7-.9-9.6-2.6l-.7-.4-7.2 1.9 1.9-7-.5-.7c-1.9-3-2.9-6.5-2.9-10 0-10.4 8.5-18.9 19-18.9S51 21.6 51 32.1s-8.5 18.7-18.9 18.7z"/>
</svg>
